<svg width="104" height="104" viewBox="0 0 104 104" fill="none" xmlns="http://www.w3.org/2000/svg">
<rect width="104" height="104" fill="white"/>
<path d="M51.9999 28.6667C47.0492 28.6667 42.3013 30.6334 38.8006 34.1341C35.2999 37.6348 33.3333 42.3827 33.3333 47.3334C33.3333 59.9334 49.7833 74.1667 50.4832 74.7734C50.9059 75.1349 51.4438 75.3336 51.9999 75.3336C52.5561 75.3336 53.0939 75.1349 53.5166 74.7734C54.3332 74.1667 70.6666 59.9334 70.6666 47.3334C70.6666 42.3827 68.6999 37.6348 65.1992 34.1341C61.6986 30.6334 56.9506 28.6667 51.9999 28.6667ZM51.9999 69.8501C47.0299 65.1834 37.9999 55.1267 37.9999 47.3334C37.9999 43.6204 39.4749 40.0594 42.1004 37.4339C44.7259 34.8084 48.2869 33.3334 51.9999 33.3334C55.7129 33.3334 59.2739 34.8084 61.8994 37.4339C64.5249 40.0594 65.9999 43.6204 65.9999 47.3334C65.9999 55.1267 56.9699 65.2067 51.9999 69.8501ZM51.9999 38.0001C50.154 38.0001 48.3495 38.5475 46.8146 39.573C45.2797 40.5986 44.0835 42.0563 43.377 43.7617C42.6706 45.4671 42.4858 47.3438 42.8459 49.1543C43.206 50.9647 44.095 52.6278 45.4003 53.9331C46.7055 55.2384 48.3686 56.1273 50.1791 56.4874C51.9896 56.8475 53.8662 56.6627 55.5716 55.9563C57.2771 55.2499 58.7347 54.0536 59.7603 52.5187C60.7859 50.9839 61.3332 49.1794 61.3332 47.3334C61.3332 44.8581 60.3499 42.4841 58.5996 40.7338C56.8492 38.9834 54.4753 38.0001 51.9999 38.0001ZM51.9999 52.0001C51.0769 52.0001 50.1747 51.7264 49.4073 51.2136C48.6398 50.7008 48.0417 49.972 47.6885 49.1193C47.3353 48.2665 47.2429 47.3282 47.4229 46.423C47.603 45.5177 48.0474 44.6862 48.7001 44.0336C49.3527 43.3809 50.1842 42.9365 51.0895 42.7564C51.9947 42.5764 52.9331 42.6688 53.7858 43.022C54.6385 43.3752 55.3673 43.9733 55.8801 44.7408C56.3929 45.5082 56.6666 46.4104 56.6666 47.3334C56.6666 48.5711 56.1749 49.7581 55.2997 50.6332C54.4246 51.5084 53.2376 52.0001 51.9999 52.0001Z" fill="#19B3BD"/>
</svg>
