<svg width="18" height="18" viewBox="0 0 18 18" fill="none" xmlns="http://www.w3.org/2000/svg">
<path d="M10.666 5.66675H11.4993C11.7204 5.66675 11.9323 5.57895 12.0886 5.42267C12.2449 5.26639 12.3327 5.05443 12.3327 4.83342C12.3327 4.6124 12.2449 4.40044 12.0886 4.24416C11.9323 4.08788 11.7204 4.00008 11.4993 4.00008H10.666C10.445 4.00008 10.233 4.08788 10.0768 4.24416C9.92048 4.40044 9.83268 4.6124 9.83268 4.83342C9.83268 5.05443 9.92048 5.26639 10.0768 5.42267C10.233 5.57895 10.445 5.66675 10.666 5.66675ZM10.666 9.00008H11.4993C11.7204 9.00008 11.9323 8.91228 12.0886 8.756C12.2449 8.59972 12.3327 8.38776 12.3327 8.16675C12.3327 7.94573 12.2449 7.73377 12.0886 7.57749C11.9323 7.42121 11.7204 7.33342 11.4993 7.33342H10.666C10.445 7.33342 10.233 7.42121 10.0768 7.57749C9.92048 7.73377 9.83268 7.94573 9.83268 8.16675C9.83268 8.38776 9.92048 8.59972 10.0768 8.756C10.233 8.91228 10.445 9.00008 10.666 9.00008ZM6.49935 5.66675H7.33268C7.5537 5.66675 7.76566 5.57895 7.92194 5.42267C8.07822 5.26639 8.16602 5.05443 8.16602 4.83342C8.16602 4.6124 8.07822 4.40044 7.92194 4.24416C7.76566 4.08788 7.5537 4.00008 7.33268 4.00008H6.49935C6.27834 4.00008 6.06637 4.08788 5.91009 4.24416C5.75381 4.40044 5.66602 4.6124 5.66602 4.83342C5.66602 5.05443 5.75381 5.26639 5.91009 5.42267C6.06637 5.57895 6.27834 5.66675 6.49935 5.66675ZM6.49935 9.00008H7.33268C7.5537 9.00008 7.76566 8.91228 7.92194 8.756C8.07822 8.59972 8.16602 8.38776 8.16602 8.16675C8.16602 7.94573 8.07822 7.73377 7.92194 7.57749C7.76566 7.42121 7.5537 7.33342 7.33268 7.33342H6.49935C6.27834 7.33342 6.06637 7.42121 5.91009 7.57749C5.75381 7.73377 5.66602 7.94573 5.66602 8.16675C5.66602 8.38776 5.75381 8.59972 5.91009 8.756C6.06637 8.91228 6.27834 9.00008 6.49935 9.00008ZM16.4993 15.6667H15.666V1.50008C15.666 1.27907 15.5782 1.06711 15.4219 0.910826C15.2657 0.754545 15.0537 0.666748 14.8327 0.666748H3.16602C2.945 0.666748 2.73304 0.754545 2.57676 0.910826C2.42048 1.06711 2.33268 1.27907 2.33268 1.50008V15.6667H1.49935C1.27834 15.6667 1.06637 15.7545 0.910093 15.9108C0.753813 16.0671 0.666016 16.2791 0.666016 16.5001C0.666016 16.7211 0.753813 16.9331 0.910093 17.0893C1.06637 17.2456 1.27834 17.3334 1.49935 17.3334H16.4993C16.7204 17.3334 16.9323 17.2456 17.0886 17.0893C17.2449 16.9331 17.3327 16.7211 17.3327 16.5001C17.3327 16.2791 17.2449 16.0671 17.0886 15.9108C16.9323 15.7545 16.7204 15.6667 16.4993 15.6667ZM9.83268 15.6667H8.16602V12.3334H9.83268V15.6667ZM13.9993 15.6667H11.4993V11.5001C11.4993 11.2791 11.4116 11.0671 11.2553 10.9108C11.099 10.7545 10.887 10.6667 10.666 10.6667H7.33268C7.11167 10.6667 6.89971 10.7545 6.74343 10.9108C6.58715 11.0671 6.49935 11.2791 6.49935 11.5001V15.6667H3.99935V2.33341H13.9993V15.6667Z" fill="#078FF7"/>
</svg>
