<svg width="18" height="18" viewBox="0 0 18 18" fill="none" xmlns="http://www.w3.org/2000/svg">
<path d="M14.8332 2.33382H13.6248C13.5253 2.02991 13.3699 1.74728 13.1665 1.50048C12.9307 1.23685 12.6417 1.02625 12.3184 0.882595C11.9952 0.738943 11.6452 0.665511 11.2915 0.667151H6.72484C6.36834 0.663138 6.01511 0.735422 5.68884 0.879151C5.36258 1.02288 5.07083 1.23473 4.83317 1.50048C4.62388 1.74595 4.46273 2.02866 4.35817 2.33382H3.1665C2.50346 2.33382 1.86758 2.59721 1.39874 3.06605C0.929896 3.53489 0.666504 4.17078 0.666504 4.83382V14.8338C0.666504 15.4969 0.929896 16.1327 1.39874 16.6016C1.86758 17.0704 2.50346 17.3338 3.1665 17.3338H14.8332C15.4962 17.3338 16.1321 17.0704 16.6009 16.6016C17.0698 16.1327 17.3332 15.4969 17.3332 14.8338V4.83382C17.3332 4.17078 17.0698 3.53489 16.6009 3.06605C16.1321 2.59721 15.4962 2.33382 14.8332 2.33382ZM6.09984 2.61715C6.17793 2.52826 6.27406 2.45702 6.38182 2.40816C6.48958 2.35931 6.60652 2.33397 6.72484 2.33382H11.2748C11.3932 2.33397 11.5101 2.35931 11.6179 2.40816C11.7256 2.45702 11.8217 2.52826 11.8998 2.61715C11.9785 2.70465 12.0377 2.80781 12.0736 2.91984C12.1095 3.03187 12.1213 3.15024 12.1082 3.26715L11.6915 6.60048C11.6669 6.80374 11.5684 6.99085 11.4147 7.1261C11.261 7.26136 11.0629 7.3353 10.8582 7.33382H9.4915L10.4415 5.33382C10.5185 5.13769 10.5184 4.91966 10.4411 4.72363C10.3639 4.52759 10.2152 4.3681 10.0251 4.27726C9.83497 4.18642 9.61749 4.17098 9.41644 4.23405C9.21539 4.29711 9.04569 4.434 8.9415 4.61715L7.6415 7.33382H7.1415C6.93677 7.3353 6.73866 7.26136 6.58496 7.1261C6.43126 6.99085 6.33273 6.80374 6.30817 6.60048L5.8915 3.26715C5.87838 3.15024 5.89016 3.03187 5.92607 2.91984C5.96198 2.80781 6.0212 2.70465 6.09984 2.61715ZM15.6665 14.8338C15.6665 15.0548 15.5787 15.2668 15.4224 15.4231C15.2661 15.5794 15.0542 15.6672 14.8332 15.6672H3.1665C2.94549 15.6672 2.73353 15.5794 2.57725 15.4231C2.42097 15.2668 2.33317 15.0548 2.33317 14.8338V4.83382C2.33317 4.6128 2.42097 4.40084 2.57725 4.24456C2.73353 4.08828 2.94549 4.00048 3.1665 4.00048H4.30817L4.65817 6.80882C4.73375 7.41708 5.03015 7.97638 5.49106 8.38044C5.95196 8.7845 6.54525 9.00516 7.15817 9.00048H10.8748C11.4878 9.00516 12.081 8.7845 12.542 8.38044C13.0029 7.97638 13.2993 7.41708 13.3748 6.80882L13.6915 4.00048H14.8332C15.0542 4.00048 15.2661 4.08828 15.4224 4.24456C15.5787 4.40084 15.6665 4.6128 15.6665 4.83382V14.8338ZM10.6665 12.3338H7.33317C7.11216 12.3338 6.9002 12.4216 6.74392 12.5779C6.58764 12.7342 6.49984 12.9461 6.49984 13.1672C6.49984 13.3882 6.58764 13.6001 6.74392 13.7564C6.9002 13.9127 7.11216 14.0005 7.33317 14.0005H10.6665C10.8875 14.0005 11.0995 13.9127 11.2558 13.7564C11.412 13.6001 11.4998 13.3882 11.4998 13.1672C11.4998 12.9461 11.412 12.7342 11.2558 12.5779C11.0995 12.4216 10.8875 12.3338 10.6665 12.3338Z" fill="#078FF7"/>
</svg>
