<svg width="44" height="44" viewBox="0 0 44 44" fill="none" xmlns="http://www.w3.org/2000/svg">
<path d="M0 4C0 1.79086 1.79086 0 4 0H40C42.2091 0 44 1.79086 44 4V40C44 42.2091 42.2091 44 40 44H4C1.79086 44 0 42.2091 0 40V4Z" fill="#DBEFFE"/>
<path d="M22 12C19.8783 12 17.8434 12.8429 16.3431 14.3431C14.8429 15.8434 14 17.8783 14 20C14 25.4 21.05 31.5 21.35 31.76C21.5311 31.9149 21.7616 32.0001 22 32.0001C22.2384 32.0001 22.4689 31.9149 22.65 31.76C23 31.5 30 25.4 30 20C30 17.8783 29.1571 15.8434 27.6569 14.3431C26.1566 12.8429 24.1217 12 22 12ZM22 29.65C19.87 27.65 16 23.34 16 20C16 18.4087 16.6321 16.8826 17.7574 15.7574C18.8826 14.6321 20.4087 14 22 14C23.5913 14 25.1174 14.6321 26.2426 15.7574C27.3679 16.8826 28 18.4087 28 20C28 23.34 24.13 27.66 22 29.65ZM22 16C21.2089 16 20.4355 16.2346 19.7777 16.6741C19.1199 17.1136 18.6072 17.7384 18.3045 18.4693C18.0017 19.2002 17.9225 20.0044 18.0769 20.7804C18.2312 21.5563 18.6122 22.269 19.1716 22.8284C19.731 23.3878 20.4437 23.7688 21.2196 23.9231C21.9956 24.0775 22.7998 23.9983 23.5307 23.6955C24.2616 23.3928 24.8864 22.8801 25.3259 22.2223C25.7654 21.5645 26 20.7911 26 20C26 18.9391 25.5786 17.9217 24.8284 17.1716C24.0783 16.4214 23.0609 16 22 16ZM22 22C21.6044 22 21.2178 21.8827 20.8889 21.6629C20.56 21.4432 20.3036 21.1308 20.1522 20.7654C20.0009 20.3999 19.9613 19.9978 20.0384 19.6098C20.1156 19.2219 20.3061 18.8655 20.5858 18.5858C20.8655 18.3061 21.2219 18.1156 21.6098 18.0384C21.9978 17.9613 22.3999 18.0009 22.7654 18.1522C23.1308 18.3036 23.4432 18.56 23.6629 18.8889C23.8827 19.2178 24 19.6044 24 20C24 20.5304 23.7893 21.0391 23.4142 21.4142C23.0391 21.7893 22.5304 22 22 22Z" fill="#078FF7"/>
</svg>
