<svg width="44" height="44" viewBox="0 0 44 44" fill="none" xmlns="http://www.w3.org/2000/svg">
<path d="M0 4C0 1.79086 1.79086 0 4 0H40C42.2091 0 44 1.79086 44 4V40C44 42.2091 42.2091 44 40 44H4C1.79086 44 0 42.2091 0 40V4Z" fill="#DBEFFE"/>
<path d="M30.47 19.0004C30.6678 19.0004 30.8611 18.9417 31.0256 18.8318C31.19 18.7219 31.3182 18.5658 31.3939 18.383C31.4696 18.2003 31.4894 17.9992 31.4508 17.8053C31.4122 17.6113 31.317 17.4331 31.1771 17.2932C31.0373 17.1534 30.8591 17.0582 30.6651 17.0196C30.4711 16.981 30.2701 17.0008 30.0873 17.0765C29.9046 17.1522 29.7484 17.2803 29.6386 17.4448C29.5287 17.6092 29.47 17.8026 29.47 18.0004C29.47 18.2656 29.5754 18.5199 29.7629 18.7075C29.9505 18.895 30.2048 19.0004 30.47 19.0004ZM27.47 19.0004C27.6678 19.0004 27.8611 18.9417 28.0256 18.8318C28.19 18.7219 28.3182 18.5658 28.3939 18.383C28.4696 18.2003 28.4894 17.9992 28.4508 17.8053C28.4122 17.6113 28.317 17.4331 28.1771 17.2932C28.0373 17.1534 27.8591 17.0582 27.6651 17.0196C27.4711 16.981 27.2701 17.0008 27.0873 17.0765C26.9046 17.1522 26.7484 17.2803 26.6386 17.4448C26.5287 17.6092 26.47 17.8026 26.47 18.0004C26.47 18.2656 26.5754 18.5199 26.7629 18.7075C26.9505 18.895 27.2048 19.0004 27.47 19.0004ZM24.47 19.0004C24.6678 19.0004 24.8611 18.9417 25.0256 18.8318C25.19 18.7219 25.3182 18.5658 25.3939 18.383C25.4696 18.2003 25.4894 17.9992 25.4508 17.8053C25.4122 17.6113 25.317 17.4331 25.1771 17.2932C25.0373 17.1534 24.8591 17.0582 24.6651 17.0196C24.4711 16.981 24.2701 17.0008 24.0873 17.0765C23.9046 17.1522 23.7484 17.2803 23.6386 17.4448C23.5287 17.6092 23.47 17.8026 23.47 18.0004C23.47 18.1317 23.4959 18.2617 23.5461 18.383C23.5964 18.5044 23.6701 18.6146 23.7629 18.7075C23.8558 18.8003 23.966 18.874 24.0873 18.9242C24.2087 18.9745 24.3387 19.0004 24.47 19.0004ZM28.91 23.0004C28.69 23.0004 28.46 22.9304 28.24 22.8804C27.7945 22.7822 27.3567 22.6518 26.93 22.4904C26.4661 22.3216 25.9562 22.3304 25.4983 22.515C25.0405 22.6996 24.6671 23.047 24.45 23.4904L24.23 23.9404C23.2545 23.3962 22.3565 22.7235 21.56 21.9404C20.7807 21.1443 20.1084 20.2501 19.56 19.2804L20 19.0004C20.4434 18.7833 20.7908 18.4099 20.9754 17.952C21.16 17.4942 21.1688 16.9843 21 16.5204C20.8412 16.0928 20.711 15.6552 20.61 15.2104C20.56 14.9804 20.52 14.7604 20.49 14.5304C20.3686 13.826 19.9996 13.1881 19.4496 12.7316C18.8996 12.2751 18.2047 12.03 17.49 12.0404H14.49C14.0673 12.0398 13.6492 12.1286 13.2631 12.3009C12.8771 12.4733 12.5319 12.7253 12.25 13.0404C11.9637 13.3629 11.7503 13.7433 11.6243 14.1557C11.4983 14.5682 11.4628 15.0029 11.52 15.4304C12.0467 19.6174 13.9524 23.5099 16.9364 26.494C19.9204 29.478 23.813 31.3836 28 31.9104C28.1298 31.9203 28.2602 31.9203 28.39 31.9104C29.1857 31.9104 29.9487 31.5943 30.5113 31.0317C31.074 30.4691 31.39 29.706 31.39 28.9104V25.9104C31.3796 25.2126 31.1263 24.5402 30.6737 24.0091C30.221 23.478 29.5973 23.1212 28.91 23.0004ZM29.4 29.0004C29.4017 29.1453 29.3718 29.2889 29.3124 29.4211C29.2531 29.5534 29.1657 29.6712 29.0563 29.7663C28.9469 29.8614 28.8181 29.9316 28.6789 29.972C28.5397 30.0124 28.3933 30.0221 28.25 30.0004C24.5162 29.5131 21.0471 27.8085 18.38 25.1504C15.715 22.4652 14.0133 18.9738 13.54 15.2204C13.5183 15.0737 13.5295 14.924 13.5727 14.7822C13.6159 14.6404 13.6902 14.51 13.79 14.4004C13.8826 14.2949 13.9964 14.2102 14.1238 14.1516C14.2513 14.093 14.3897 14.0619 14.53 14.0604H17.53C17.7626 14.0552 17.9896 14.1312 18.1722 14.2754C18.3547 14.4196 18.4812 14.6229 18.53 14.8504C18.57 15.1237 18.62 15.3937 18.68 15.6604C18.7955 16.1875 18.9493 16.7055 19.14 17.2104L17.74 17.8604C17.6203 17.9153 17.5126 17.9933 17.4232 18.09C17.3337 18.1866 17.2642 18.3 17.2187 18.4236C17.1732 18.5471 17.1525 18.6785 17.1579 18.8101C17.1632 18.9417 17.1946 19.0709 17.25 19.1904C18.6892 22.2731 21.1673 24.7512 24.25 26.1904C24.4935 26.2904 24.7666 26.2904 25.01 26.1904C25.2582 26.098 25.4596 25.911 25.57 25.6704L26.2 24.2704C26.717 24.4552 27.2446 24.6088 27.78 24.7304C28.04 24.7904 28.32 24.8404 28.59 24.8804C28.8156 24.9312 29.0166 25.0586 29.1588 25.2409C29.301 25.4232 29.3757 25.6492 29.37 25.8804L29.4 29.0004Z" fill="#078FF7"/>
</svg>
