<svg width="18" height="20" viewBox="0 0 18 20" fill="none" xmlns="http://www.w3.org/2000/svg">
<path d="M9.0013 15.8333C9.16612 15.8333 9.32724 15.7844 9.46428 15.6928C9.60132 15.6012 9.70813 15.4711 9.7712 15.3188C9.83428 15.1665 9.85078 14.999 9.81862 14.8373C9.78647 14.6757 9.7071 14.5272 9.59056 14.4107C9.47401 14.2941 9.32553 14.2148 9.16388 14.1826C9.00223 14.1504 8.83467 14.1669 8.6824 14.23C8.53013 14.2931 8.39998 14.3999 8.30841 14.5369C8.21684 14.674 8.16797 14.8351 8.16797 14.9999C8.16797 15.2209 8.25577 15.4329 8.41205 15.5892C8.56833 15.7455 8.78029 15.8333 9.0013 15.8333ZM13.168 15.8333C13.3328 15.8333 13.4939 15.7844 13.6309 15.6928C13.768 15.6012 13.8748 15.4711 13.9379 15.3188C14.0009 15.1665 14.0174 14.999 13.9853 14.8373C13.9531 14.6757 13.8738 14.5272 13.7572 14.4107C13.6407 14.2941 13.4922 14.2148 13.3305 14.1826C13.1689 14.1504 13.0013 14.1669 12.8491 14.23C12.6968 14.2931 12.5666 14.3999 12.4751 14.5369C12.3835 14.674 12.3346 14.8351 12.3346 14.9999C12.3346 15.2209 12.4224 15.4329 12.5787 15.5892C12.735 15.7455 12.947 15.8333 13.168 15.8333ZM13.168 12.4999C13.3328 12.4999 13.4939 12.451 13.6309 12.3595C13.768 12.2679 13.8748 12.1378 13.9379 11.9855C14.0009 11.8332 14.0174 11.6657 13.9853 11.504C13.9531 11.3424 13.8738 11.1939 13.7572 11.0773C13.6407 10.9608 13.4922 10.8814 13.3305 10.8493C13.1689 10.8171 13.0013 10.8336 12.8491 10.8967C12.6968 10.9598 12.5666 11.0666 12.4751 11.2036C12.3835 11.3406 12.3346 11.5018 12.3346 11.6666C12.3346 11.8876 12.4224 12.0996 12.5787 12.2558C12.735 12.4121 12.947 12.4999 13.168 12.4999ZM9.0013 12.4999C9.16612 12.4999 9.32724 12.451 9.46428 12.3595C9.60132 12.2679 9.70813 12.1378 9.7712 11.9855C9.83428 11.8332 9.85078 11.6657 9.81862 11.504C9.78647 11.3424 9.7071 11.1939 9.59056 11.0773C9.47401 10.9608 9.32553 10.8814 9.16388 10.8493C9.00223 10.8171 8.83467 10.8336 8.6824 10.8967C8.53013 10.9598 8.39998 11.0666 8.30841 11.2036C8.21684 11.3406 8.16797 11.5018 8.16797 11.6666C8.16797 11.8876 8.25577 12.0996 8.41205 12.2558C8.56833 12.4121 8.78029 12.4999 9.0013 12.4999ZM14.8346 2.49992H14.0013V1.66659C14.0013 1.44557 13.9135 1.23361 13.7572 1.07733C13.6009 0.921049 13.389 0.833252 13.168 0.833252C12.947 0.833252 12.735 0.921049 12.5787 1.07733C12.4224 1.23361 12.3346 1.44557 12.3346 1.66659V2.49992H5.66797V1.66659C5.66797 1.44557 5.58017 1.23361 5.42389 1.07733C5.26761 0.921049 5.05565 0.833252 4.83464 0.833252C4.61362 0.833252 4.40166 0.921049 4.24538 1.07733C4.0891 1.23361 4.0013 1.44557 4.0013 1.66659V2.49992H3.16797C2.50493 2.49992 1.86904 2.76331 1.4002 3.23215C0.931361 3.70099 0.667969 4.33688 0.667969 4.99992V16.6666C0.667969 17.3296 0.931361 17.9655 1.4002 18.4344C1.86904 18.9032 2.50493 19.1666 3.16797 19.1666H14.8346C15.4977 19.1666 16.1336 18.9032 16.6024 18.4344C17.0712 17.9655 17.3346 17.3296 17.3346 16.6666V4.99992C17.3346 4.33688 17.0712 3.70099 16.6024 3.23215C16.1336 2.76331 15.4977 2.49992 14.8346 2.49992ZM15.668 16.6666C15.668 16.8876 15.5802 17.0996 15.4239 17.2558C15.2676 17.4121 15.0556 17.4999 14.8346 17.4999H3.16797C2.94696 17.4999 2.73499 17.4121 2.57871 17.2558C2.42243 17.0996 2.33464 16.8876 2.33464 16.6666V9.16658H15.668V16.6666ZM15.668 7.49992H2.33464V4.99992C2.33464 4.7789 2.42243 4.56694 2.57871 4.41066C2.73499 4.25438 2.94696 4.16658 3.16797 4.16658H4.0013V4.99992C4.0013 5.22093 4.0891 5.43289 4.24538 5.58917C4.40166 5.74545 4.61362 5.83325 4.83464 5.83325C5.05565 5.83325 5.26761 5.74545 5.42389 5.58917C5.58017 5.43289 5.66797 5.22093 5.66797 4.99992V4.16658H12.3346V4.99992C12.3346 5.22093 12.4224 5.43289 12.5787 5.58917C12.735 5.74545 12.947 5.83325 13.168 5.83325C13.389 5.83325 13.6009 5.74545 13.7572 5.58917C13.9135 5.43289 14.0013 5.22093 14.0013 4.99992V4.16658H14.8346C15.0556 4.16658 15.2676 4.25438 15.4239 4.41066C15.5802 4.56694 15.668 4.7789 15.668 4.99992V7.49992ZM4.83464 12.4999C4.99945 12.4999 5.16057 12.451 5.29761 12.3595C5.43465 12.2679 5.54146 12.1378 5.60454 11.9855C5.66761 11.8332 5.68411 11.6657 5.65196 11.504C5.6198 11.3424 5.54043 11.1939 5.42389 11.0773C5.30735 10.9608 5.15886 10.8814 4.99721 10.8493C4.83556 10.8171 4.668 10.8336 4.51573 10.8967C4.36346 10.9598 4.23331 11.0666 4.14174 11.2036C4.05018 11.3406 4.0013 11.5018 4.0013 11.6666C4.0013 11.8876 4.0891 12.0996 4.24538 12.2558C4.40166 12.4121 4.61362 12.4999 4.83464 12.4999ZM4.83464 15.8333C4.99945 15.8333 5.16057 15.7844 5.29761 15.6928C5.43465 15.6012 5.54146 15.4711 5.60454 15.3188C5.66761 15.1665 5.68411 14.999 5.65196 14.8373C5.6198 14.6757 5.54043 14.5272 5.42389 14.4107C5.30735 14.2941 5.15886 14.2148 4.99721 14.1826C4.83556 14.1504 4.668 14.1669 4.51573 14.23C4.36346 14.2931 4.23331 14.3999 4.14174 14.5369C4.05018 14.674 4.0013 14.8351 4.0013 14.9999C4.0013 15.2209 4.0891 15.4329 4.24538 15.5892C4.40166 15.7455 4.61362 15.8333 4.83464 15.8333Z" fill="#078FF7"/>
</svg>
