<svg width="18" height="18" viewBox="0 0 18 18" fill="none" xmlns="http://www.w3.org/2000/svg">
<path d="M4.8327 3.99985C4.66788 3.99985 4.50676 4.04873 4.36972 4.14029C4.23268 4.23186 4.12587 4.36201 4.0628 4.51428C3.99972 4.66655 3.98322 4.83411 4.01537 4.99576C4.04753 5.15741 4.1269 5.3059 4.24344 5.42244C4.35998 5.53898 4.50847 5.61835 4.67012 5.65051C4.83177 5.68266 4.99933 5.66616 5.1516 5.60308C5.30387 5.54001 5.43402 5.4332 5.52559 5.29616C5.61716 5.15912 5.66603 4.998 5.66603 4.83318C5.66603 4.61217 5.57823 4.40021 5.42195 4.24393C5.26567 4.08765 5.05371 3.99985 4.8327 3.99985ZM17.091 8.81652L9.19103 0.933184C9.11333 0.849404 9.01923 0.782497 8.91458 0.736623C8.80993 0.690748 8.69696 0.666885 8.5827 0.666518H3.5827C3.47302 0.665884 3.36431 0.686905 3.26277 0.728375C3.16124 0.769846 3.0689 0.83095 2.99103 0.908184L0.907696 2.98318C0.830462 3.06105 0.769357 3.1534 0.727887 3.25493C0.686416 3.35646 0.665395 3.46518 0.66603 3.57485V8.57485C0.669099 8.79549 0.755418 9.00682 0.907696 9.16652L8.81603 17.0832C8.97572 17.2355 9.18706 17.3218 9.4077 17.3249C9.51737 17.3255 9.62609 17.3045 9.72762 17.263C9.82915 17.2215 9.9215 17.1604 9.99936 17.0832L17.091 9.99152C17.1683 9.91365 17.2294 9.82131 17.2708 9.71977C17.3123 9.61824 17.3333 9.50952 17.3327 9.39985C17.3276 9.18211 17.2414 8.97411 17.091 8.81652ZM9.4077 15.3249L2.3327 8.24152V3.91652L3.91603 2.33318H8.2327L15.316 9.40818L9.4077 15.3249Z" fill="#078FF7"/>
</svg>
