<svg width="18" height="18" viewBox="0 0 18 18" fill="none" xmlns="http://www.w3.org/2000/svg">
<path d="M14.8337 5.66699H14.0003V3.16699C14.0003 2.50395 13.7369 1.86807 13.2681 1.39923C12.7993 0.930384 12.1634 0.666992 11.5003 0.666992H3.16699C2.50395 0.666992 1.86807 0.930384 1.39923 1.39923C0.930384 1.86807 0.666992 2.50395 0.666992 3.16699V13.167C0.667813 13.3315 0.717315 13.4921 0.80926 13.6285C0.901204 13.765 1.03148 13.8711 1.18366 13.9337C1.28256 13.9803 1.39101 14.0031 1.50033 14.0003C1.61 14.001 1.71872 13.9799 1.82025 13.9385C1.92178 13.897 2.01413 13.8359 2.09199 13.7587L4.43366 11.4087H5.66699V12.6087C5.66699 13.2717 5.93038 13.9076 6.39923 14.3764C6.86807 14.8453 7.50395 15.1087 8.16699 15.1087H13.9337L15.9087 17.092C15.9865 17.1692 16.0789 17.2303 16.1804 17.2718C16.2819 17.3133 16.3907 17.3343 16.5003 17.3337C16.6096 17.3365 16.7181 17.3136 16.817 17.267C16.9692 17.2045 17.0994 17.0983 17.1914 16.9619C17.2833 16.8254 17.3328 16.6648 17.3337 16.5003V8.16699C17.3337 7.50395 17.0703 6.86807 16.6014 6.39922C16.1326 5.93038 15.4967 5.66699 14.8337 5.66699ZM5.66699 8.16699V9.74199H4.09199C3.98232 9.74136 3.8736 9.76238 3.77207 9.80385C3.67054 9.84532 3.57819 9.90642 3.50033 9.98366L2.33366 11.1587V3.16699C2.33366 2.94598 2.42146 2.73402 2.57774 2.57774C2.73402 2.42146 2.94598 2.33366 3.16699 2.33366H11.5003C11.7213 2.33366 11.9333 2.42146 12.0896 2.57774C12.2459 2.73402 12.3337 2.94598 12.3337 3.16699V5.66699H8.16699C7.50395 5.66699 6.86807 5.93038 6.39923 6.39922C5.93038 6.86807 5.66699 7.50395 5.66699 8.16699ZM15.667 14.492L14.8337 13.6587C14.7565 13.5799 14.6644 13.5173 14.5629 13.4744C14.4613 13.4314 14.3522 13.4091 14.242 13.4087H8.16699C7.94598 13.4087 7.73402 13.3209 7.57774 13.1646C7.42146 13.0083 7.33366 12.7963 7.33366 12.5753V8.16699C7.33366 7.94598 7.42146 7.73402 7.57774 7.57774C7.73402 7.42146 7.94598 7.33366 8.16699 7.33366H14.8337C15.0547 7.33366 15.2666 7.42146 15.4229 7.57774C15.5792 7.73402 15.667 7.94598 15.667 8.16699V14.492Z" fill="white"/>
</svg>
