<svg width="18" height="18" viewBox="0 0 18 18" fill="none" xmlns="http://www.w3.org/2000/svg">
<path d="M8.99935 0.666748C7.35118 0.666748 5.74001 1.15549 4.3696 2.07117C2.99919 2.98685 1.93109 4.28834 1.30036 5.81105C0.669626 7.33377 0.504599 9.00933 0.826142 10.6258C1.14769 12.2423 1.94136 13.7272 3.1068 14.8926C4.27223 16.0581 5.75709 16.8517 7.3736 17.1733C8.99011 17.4948 10.6657 17.3298 12.1884 16.6991C13.7111 16.0683 15.0126 15.0002 15.9283 13.6298C16.8439 12.2594 17.3327 10.6483 17.3327 9.00008C17.3302 6.7907 16.4515 4.67251 14.8892 3.11024C13.3269 1.54797 11.2087 0.669205 8.99935 0.666748ZM8.99935 15.6667C7.68081 15.6667 6.39188 15.2758 5.29555 14.5432C4.19922 13.8107 3.34474 12.7695 2.84016 11.5513C2.33557 10.3331 2.20355 8.99269 2.46078 7.69948C2.71802 6.40627 3.35296 5.21839 4.28531 4.28604C5.21766 3.35369 6.40554 2.71875 7.69875 2.46151C8.99196 2.20428 10.3324 2.3363 11.5506 2.84088C12.7687 3.34547 13.8099 4.19995 14.5425 5.29628C15.275 6.39261 15.666 7.68154 15.666 9.00008C15.664 10.7676 14.961 12.4621 13.7112 13.7119C12.4614 14.9617 10.7668 15.6647 8.99935 15.6667ZM8.99935 8.58342C8.77834 8.58342 8.56638 8.67121 8.4101 8.82749C8.25382 8.98377 8.16602 9.19573 8.16602 9.41675V11.9167C8.16602 12.1378 8.25382 12.3497 8.4101 12.506C8.56638 12.6623 8.77834 12.7501 8.99935 12.7501C9.22037 12.7501 9.43233 12.6623 9.58861 12.506C9.74489 12.3497 9.83269 12.1378 9.83269 11.9167V9.41675C9.83269 9.19573 9.74489 8.98377 9.58861 8.82749C9.43233 8.67121 9.22037 8.58342 8.99935 8.58342ZM8.99935 5.25008C8.79333 5.25008 8.59194 5.31117 8.42063 5.42563C8.24933 5.54009 8.11582 5.70278 8.03698 5.89312C7.95814 6.08346 7.93751 6.2929 7.9777 6.49497C8.01789 6.69703 8.1171 6.88264 8.26278 7.02832C8.40846 7.174 8.59407 7.27321 8.79613 7.3134C8.9982 7.35359 9.20764 7.33296 9.39798 7.25412C9.58832 7.17528 9.75101 7.04177 9.86547 6.87047C9.97993 6.69917 10.041 6.49777 10.041 6.29175C10.041 6.01548 9.93127 5.75053 9.73592 5.55518C9.54057 5.35983 9.27562 5.25008 8.99935 5.25008Z" fill="#71BFFB"/>
</svg>
