<svg width="35" height="34" viewBox="0 0 35 34" fill="none" xmlns="http://www.w3.org/2000/svg">
<path d="M17.4987 0.333252C8.33203 0.333252 0.832031 7.83325 0.832031 16.9999C0.832031 26.1666 8.33203 33.6666 17.4987 33.6666C26.6654 33.6666 34.1654 26.1666 34.1654 16.9999C34.1654 7.83325 26.6654 0.333252 17.4987 0.333252ZM24.4987 14.1666L16.4987 22.1666C15.832 22.8333 14.832 22.8333 14.1654 22.1666L10.4987 18.4999C9.83203 17.8333 9.83203 16.8333 10.4987 16.1666C11.1654 15.4999 12.1654 15.4999 12.832 16.1666L15.332 18.6666L22.1654 11.8333C22.832 11.1666 23.832 11.1666 24.4987 11.8333C25.1654 12.4999 25.1654 13.4999 24.4987 14.1666Z" fill="#078FF7"/>
</svg>
