<svg width="14" height="14" viewBox="0 0 14 14" fill="none" xmlns="http://www.w3.org/2000/svg">
<path d="M8.81399 4.86016L5.95399 7.72683L4.85399 6.62683C4.79422 6.55704 4.72068 6.50036 4.63797 6.46035C4.55526 6.42033 4.46517 6.39784 4.37336 6.3943C4.28154 6.39075 4.18999 6.40622 4.10444 6.43974C4.01889 6.47325 3.94119 6.52409 3.87622 6.58906C3.81125 6.65403 3.76041 6.73173 3.7269 6.81728C3.69338 6.90283 3.67791 6.99439 3.68145 7.0862C3.685 7.17801 3.70749 7.2681 3.7475 7.35081C3.78752 7.43352 3.8442 7.50707 3.91399 7.56683L5.48065 9.14016C5.54295 9.20195 5.61682 9.25083 5.69805 9.28401C5.77927 9.31719 5.86625 9.334 5.95399 9.3335C6.12888 9.33276 6.29648 9.26333 6.42065 9.14016L9.75399 5.80683C9.81647 5.74485 9.86607 5.67112 9.89991 5.58988C9.93376 5.50864 9.95119 5.4215 9.95119 5.3335C9.95119 5.24549 9.93376 5.15835 9.89991 5.07711C9.86607 4.99587 9.81647 4.92214 9.75399 4.86016C9.62908 4.736 9.46011 4.6663 9.28399 4.6663C9.10786 4.6663 8.9389 4.736 8.81399 4.86016ZM7.00065 0.333496C5.68211 0.333496 4.39318 0.724489 3.29685 1.45703C2.20052 2.18957 1.34604 3.23077 0.841457 4.44894C0.336873 5.66711 0.204851 7.00756 0.462086 8.30077C0.71932 9.59397 1.35426 10.7819 2.28661 11.7142C3.21896 12.6466 4.40685 13.2815 5.70005 13.5387C6.99326 13.796 8.3337 13.6639 9.55188 13.1594C10.7701 12.6548 11.8112 11.8003 12.5438 10.704C13.2763 9.60764 13.6673 8.31871 13.6673 7.00016C13.6673 6.12468 13.4949 5.25778 13.1599 4.44894C12.8248 3.6401 12.3338 2.90517 11.7147 2.28612C11.0956 1.66706 10.3607 1.176 9.55188 0.840966C8.74304 0.505935 7.87613 0.333496 7.00065 0.333496ZM7.00065 12.3335C5.94582 12.3335 4.91467 12.0207 4.03761 11.4347C3.16055 10.8486 2.47696 10.0157 2.0733 9.04114C1.66963 8.0666 1.56401 6.99425 1.7698 5.95968C1.97559 4.92512 2.48354 3.97481 3.22942 3.22893C3.9753 2.48305 4.92561 1.9751 5.96017 1.76931C6.99474 1.56352 8.06709 1.66914 9.04163 2.07281C10.0162 2.47647 10.8491 3.16006 11.4352 4.03712C12.0212 4.91418 12.334 5.94533 12.334 7.00016C12.334 8.41465 11.7721 9.77121 10.7719 10.7714C9.7717 11.7716 8.41514 12.3335 7.00065 12.3335Z" fill="#078FF7"/>
</svg>
