<svg width="18" height="18" viewBox="0 0 18 18" fill="none" xmlns="http://www.w3.org/2000/svg">
<path d="M9.16732 0.666748C7.51914 0.666748 5.90798 1.15549 4.53757 2.07117C3.16716 2.98685 2.09906 4.28834 1.46833 5.81105C0.837595 7.33377 0.672567 9.00933 0.994111 10.6258C1.31565 12.2423 2.10933 13.7272 3.27476 14.8926C4.4402 16.0581 5.92506 16.8518 7.54157 17.1733C9.15808 17.4948 10.8336 17.3298 12.3564 16.6991C13.8791 16.0683 15.1806 15.0002 16.0962 13.6298C17.0119 12.2594 17.5007 10.6483 17.5007 9.00008C17.5007 7.90573 17.2851 6.8221 16.8663 5.81105C16.4475 4.80001 15.8337 3.88135 15.0599 3.10752C14.2861 2.3337 13.3674 1.71987 12.3564 1.30109C11.3453 0.882296 10.2617 0.666748 9.16732 0.666748V0.666748ZM9.16732 15.6667C7.84878 15.6667 6.55985 15.2758 5.46352 14.5432C4.36719 13.8107 3.51271 12.7695 3.00812 11.5513C2.50354 10.3331 2.37152 8.99269 2.62875 7.69948C2.88599 6.40627 3.52093 5.21839 4.45328 4.28604C5.38563 3.35369 6.57351 2.71875 7.86672 2.46151C9.15993 2.20428 10.5004 2.3363 11.7185 2.84088C12.9367 3.34547 13.9779 4.19995 14.7105 5.29628C15.443 6.39261 15.834 7.68154 15.834 9.00008C15.834 10.7682 15.1316 12.4639 13.8814 13.7141C12.6311 14.9644 10.9354 15.6667 9.16732 15.6667V15.6667ZM9.16732 4.00008C8.94631 4.00008 8.73435 4.08788 8.57807 4.24416C8.42179 4.40044 8.33399 4.6124 8.33399 4.83341V8.51675L6.58399 9.52508C6.42345 9.61605 6.29765 9.75773 6.2263 9.9279C6.15496 10.0981 6.14211 10.2871 6.18978 10.4654C6.23744 10.6436 6.34291 10.801 6.48967 10.9129C6.63642 11.0247 6.81614 11.0847 7.00065 11.0834C7.14663 11.0844 7.29032 11.0471 7.41732 10.9751L9.58399 9.72508L9.65899 9.65008L9.79232 9.54175C9.82491 9.50049 9.85285 9.45578 9.87566 9.40841C9.90281 9.36368 9.92516 9.31619 9.94232 9.26675C9.96499 9.21376 9.97905 9.1575 9.98399 9.10008C9.98399 9.10008 10.0007 9.00008 10.0007 9.00008V4.83341C10.0007 4.6124 9.91286 4.40044 9.75658 4.24416C9.6003 4.08788 9.38834 4.00008 9.16732 4.00008Z" fill="#078FF7"/>
</svg>
