<svg width="18" height="18" viewBox="0 0 18 18" fill="none" xmlns="http://www.w3.org/2000/svg">
<path d="M4.83464 10.6667H6.5013C6.72232 10.6667 6.93428 10.579 7.09056 10.4227C7.24684 10.2664 7.33464 10.0544 7.33464 9.83342C7.33464 9.6124 7.24684 9.40044 7.09056 9.24416C6.93428 9.08788 6.72232 9.00008 6.5013 9.00008H4.83464C4.61362 9.00008 4.40166 9.08788 4.24538 9.24416C4.0891 9.40044 4.0013 9.6124 4.0013 9.83342C4.0013 10.0544 4.0891 10.2664 4.24538 10.4227C4.40166 10.579 4.61362 10.6667 4.83464 10.6667ZM9.83464 12.3334H4.83464C4.61362 12.3334 4.40166 12.4212 4.24538 12.5775C4.0891 12.7338 4.0013 12.9457 4.0013 13.1667C4.0013 13.3878 4.0891 13.5997 4.24538 13.756C4.40166 13.9123 4.61362 14.0001 4.83464 14.0001H9.83464C10.0556 14.0001 10.2676 13.9123 10.4239 13.756C10.5802 13.5997 10.668 13.3878 10.668 13.1667C10.668 12.9457 10.5802 12.7338 10.4239 12.5775C10.2676 12.4212 10.0556 12.3334 9.83464 12.3334ZM14.8346 0.666748H3.16797C2.50493 0.666748 1.86904 0.93014 1.4002 1.39898C0.931361 1.86782 0.667969 2.50371 0.667969 3.16675V14.8334C0.667969 15.4965 0.931361 16.1323 1.4002 16.6012C1.86904 17.07 2.50493 17.3334 3.16797 17.3334H14.8346C15.4977 17.3334 16.1336 17.07 16.6024 16.6012C17.0712 16.1323 17.3346 15.4965 17.3346 14.8334V3.16675C17.3346 2.50371 17.0712 1.86782 16.6024 1.39898C16.1336 0.93014 15.4977 0.666748 14.8346 0.666748ZM10.668 2.33341V5.07508L9.40964 4.37508C9.28295 4.30194 9.13925 4.26344 8.99297 4.26344C8.84669 4.26344 8.70298 4.30194 8.5763 4.37508L7.33464 5.07508V2.33341H10.668ZM15.668 14.8334C15.668 15.0544 15.5802 15.2664 15.4239 15.4227C15.2676 15.579 15.0556 15.6667 14.8346 15.6667H3.16797C2.94696 15.6667 2.73499 15.579 2.57871 15.4227C2.42243 15.2664 2.33464 15.0544 2.33464 14.8334V3.16675C2.33464 2.94573 2.42243 2.73377 2.57871 2.57749C2.73499 2.42121 2.94696 2.33341 3.16797 2.33341H5.66797V6.50008C5.66885 6.64551 5.70777 6.78818 5.78086 6.9139C5.85396 7.03963 5.95869 7.14404 6.08464 7.21675C6.21132 7.28989 6.35502 7.32839 6.5013 7.32839C6.64758 7.32839 6.79129 7.28989 6.91797 7.21675L9.0013 6.05842L11.093 7.22508C11.2175 7.29567 11.3581 7.33298 11.5013 7.33342C11.7223 7.33342 11.9343 7.24562 12.0906 7.08934C12.2468 6.93306 12.3346 6.7211 12.3346 6.50008V2.33341H14.8346C15.0556 2.33341 15.2676 2.42121 15.4239 2.57749C15.5802 2.73377 15.668 2.94573 15.668 3.16675V14.8334Z" fill="#078FF7"/>
</svg>
