<svg width="4" height="17" viewBox="0 0 4 17" fill="none" xmlns="http://www.w3.org/2000/svg">
<path d="M2 16.5C0.89543 16.5 0 15.6046 0 14.5C0 13.3954 0.89543 12.5 2 12.5C3.10457 12.5 4 13.3954 4 14.5C4 15.6046 3.10457 16.5 2 16.5ZM2 10.5C0.89543 10.5 0 9.60457 0 8.5C0 7.39543 0.89543 6.5 2 6.5C3.10457 6.5 4 7.39543 4 8.5C4 9.03043 3.78929 9.53914 3.41421 9.91421C3.03914 10.2893 2.53043 10.5 2 10.5ZM2 4.5C0.89543 4.5 0 3.60457 0 2.5C0 1.39543 0.89543 0.5 2 0.5C3.10457 0.5 4 1.39543 4 2.5C4 3.03043 3.78929 3.53914 3.41421 3.91421C3.03914 4.28929 2.53043 4.5 2 4.5Z" fill="#617283"/>
</svg>
