<svg width="104" height="104" viewBox="0 0 104 104" fill="none" xmlns="http://www.w3.org/2000/svg">
<rect width="104" height="104" fill="white"/>
<path d="M68.3334 33.3333H35.6667C33.8102 33.3333 32.0298 34.0707 30.717 35.3835C29.4042 36.6963 28.6667 38.4767 28.6667 40.3333V63.6666C28.6667 65.5231 29.4042 67.3036 30.717 68.6163C32.0298 69.9291 33.8102 70.6666 35.6667 70.6666H68.3334C70.1899 70.6666 71.9704 69.9291 73.2832 68.6163C74.5959 67.3036 75.3334 65.5231 75.3334 63.6666V40.3333C75.3334 38.4767 74.5959 36.6963 73.2832 35.3835C71.9704 34.0707 70.1899 33.3333 68.3334 33.3333ZM67.3768 37.9999L53.6567 51.7199C53.4398 51.9386 53.1818 52.1122 52.8974 52.2307C52.6131 52.3491 52.3081 52.4101 52.0001 52.4101C51.6921 52.4101 51.3871 52.3491 51.1027 52.2307C50.8184 52.1122 50.5603 51.9386 50.3434 51.7199L36.6234 37.9999H67.3768ZM70.6668 63.6666C70.6668 64.2854 70.4209 64.8789 69.9833 65.3165C69.5457 65.7541 68.9523 65.9999 68.3334 65.9999H35.6667C35.0479 65.9999 34.4544 65.7541 34.0168 65.3165C33.5792 64.8789 33.3334 64.2854 33.3334 63.6666V41.2899L47.0534 55.0099C48.3659 56.3208 50.1451 57.0571 52.0001 57.0571C53.8551 57.0571 55.6342 56.3208 56.9468 55.0099L70.6668 41.2899V63.6666Z" fill="#FFC845"/>
</svg>
