<svg width="18" height="18" viewBox="0 0 18 18" fill="none" xmlns="http://www.w3.org/2000/svg">
<path d="M16.417 0.666992H1.58366C1.34054 0.666992 1.10739 0.763569 0.935478 0.935478C0.763569 1.10739 0.666992 1.34054 0.666992 1.58366V16.417C0.666992 16.5374 0.690703 16.6566 0.736769 16.7678C0.782836 16.879 0.850357 16.9801 0.935478 17.0652C1.0206 17.1503 1.12165 17.2178 1.23287 17.2639C1.34408 17.3099 1.46328 17.3337 1.58366 17.3337H9.56699V10.8753H7.40033V8.37533H9.56699V6.50033C9.52211 6.06012 9.57408 5.61543 9.71926 5.19744C9.86443 4.77945 10.0993 4.39828 10.4074 4.08067C10.7155 3.76306 11.0893 3.51669 11.5027 3.35886C11.9161 3.20102 12.359 3.13554 12.8003 3.16699C13.4489 3.163 14.0972 3.19639 14.742 3.26699V5.51699H13.417C12.367 5.51699 12.167 6.01699 12.167 6.74199V8.35033H14.667L14.342 10.8503H12.167V17.3337H16.417C16.5374 17.3337 16.6566 17.3099 16.7678 17.2639C16.879 17.2178 16.9801 17.1503 17.0652 17.0652C17.1503 16.9801 17.2178 16.879 17.2639 16.7678C17.3099 16.6566 17.3337 16.5374 17.3337 16.417V1.58366C17.3337 1.46328 17.3099 1.34408 17.2639 1.23287C17.2178 1.12165 17.1503 1.0206 17.0652 0.935478C16.9801 0.850357 16.879 0.782836 16.7678 0.736769C16.6566 0.690703 16.5374 0.666992 16.417 0.666992Z" fill="#617283"/>
</svg>
