<svg width="19" height="19" viewBox="0 0 19 19" fill="none" xmlns="http://www.w3.org/2000/svg">
<path d="M18.375 2.28125V16.7188C18.375 17.8057 17.4932 18.6875 16.4062 18.6875H12.9076V11.4195H15.3932L15.75 8.64687H12.9076V6.875C12.9076 6.07109 13.1291 5.52559 14.2816 5.52559H15.75V3.04824C15.4957 3.01543 14.6262 2.9375 13.609 2.9375C11.4926 2.9375 10.0406 4.22949 10.0406 6.6043V8.65098H7.54688V11.4236H10.0447V18.6875H1.96875C0.881836 18.6875 0 17.8057 0 16.7188V2.28125C0 1.19434 0.881836 0.3125 1.96875 0.3125H16.4062C17.4932 0.3125 18.375 1.19434 18.375 2.28125Z" fill="#F1F1F1"/>
</svg>
