<svg width="18" height="18" viewBox="0 0 18 18" fill="none" xmlns="http://www.w3.org/2000/svg">
<path d="M14.8327 0.666748H3.16602C2.50297 0.666748 1.86709 0.93014 1.39825 1.39898C0.929408 1.86782 0.666016 2.50371 0.666016 3.16675V4.14175C0.665896 4.48587 0.736821 4.82631 0.874349 5.14175V5.19175C0.992082 5.45922 1.15884 5.7023 1.36602 5.90841L6.49935 11.0084V16.5001C6.49907 16.6417 6.53488 16.7811 6.60341 16.905C6.67194 17.0289 6.77092 17.1334 6.89102 17.2084C7.02363 17.2906 7.17666 17.3339 7.33268 17.3334C7.46313 17.3326 7.59158 17.3012 7.70768 17.2417L11.041 15.5751C11.1784 15.5058 11.294 15.3999 11.3749 15.269C11.4558 15.1381 11.4989 14.9873 11.4993 14.8334V11.0084L16.5993 5.90841C16.8065 5.7023 16.9733 5.45922 17.091 5.19175V5.14175C17.24 4.82877 17.3223 4.48823 17.3327 4.14175V3.16675C17.3327 2.50371 17.0693 1.86782 16.6004 1.39898C16.1316 0.93014 15.4957 0.666748 14.8327 0.666748ZM10.0743 10.0751C9.99711 10.1529 9.93601 10.2453 9.89454 10.3468C9.85307 10.4484 9.83205 10.5571 9.83268 10.6667V14.3167L8.16602 15.1501V10.6667C8.16665 10.5571 8.14563 10.4484 8.10416 10.3468C8.06269 10.2453 8.00158 10.1529 7.92435 10.0751L3.50768 5.66675H14.491L10.0743 10.0751ZM15.666 4.00008H2.33268V3.16675C2.33268 2.94573 2.42048 2.73377 2.57676 2.57749C2.73304 2.42121 2.945 2.33341 3.16602 2.33341H14.8327C15.0537 2.33341 15.2657 2.42121 15.4219 2.57749C15.5782 2.73377 15.666 2.94573 15.666 3.16675V4.00008Z" fill="#4D5A68"/>
</svg>
