<svg width="21" height="20" viewBox="0 0 21 20" fill="none" xmlns="http://www.w3.org/2000/svg">
<path d="M19.47 7.00036C19.6677 7.00036 19.8611 6.94171 20.0255 6.83183C20.19 6.72194 20.3182 6.56577 20.3938 6.38304C20.4695 6.20031 20.4893 5.99925 20.4507 5.80527C20.4122 5.61128 20.3169 5.4331 20.1771 5.29325C20.0372 5.1534 19.859 5.05816 19.6651 5.01957C19.4711 4.98099 19.27 5.00079 19.0873 5.07648C18.9046 5.15216 18.7484 5.28034 18.6385 5.44479C18.5286 5.60924 18.47 5.80258 18.47 6.00036C18.47 6.26557 18.5753 6.51993 18.7629 6.70746C18.9504 6.895 19.2047 7.00036 19.47 7.00036ZM16.47 7.00036C16.6677 7.00036 16.8611 6.94171 17.0255 6.83183C17.19 6.72194 17.3182 6.56577 17.3938 6.38304C17.4695 6.20031 17.4893 5.99925 17.4507 5.80527C17.4122 5.61128 17.3169 5.4331 17.1771 5.29325C17.0372 5.1534 16.859 5.05816 16.6651 5.01957C16.4711 4.98099 16.27 5.00079 16.0873 5.07648C15.9046 5.15216 15.7484 5.28034 15.6385 5.44479C15.5286 5.60924 15.47 5.80258 15.47 6.00036C15.47 6.26557 15.5753 6.51993 15.7629 6.70746C15.9504 6.895 16.2047 7.00036 16.47 7.00036ZM13.47 7.00036C13.6677 7.00036 13.8611 6.94171 14.0255 6.83183C14.19 6.72194 14.3182 6.56577 14.3938 6.38304C14.4695 6.20031 14.4893 5.99925 14.4507 5.80527C14.4122 5.61128 14.3169 5.4331 14.1771 5.29325C14.0372 5.1534 13.859 5.05816 13.6651 5.01957C13.4711 4.98099 13.27 5.00079 13.0873 5.07648C12.9046 5.15216 12.7484 5.28034 12.6385 5.44479C12.5286 5.60924 12.47 5.80258 12.47 6.00036C12.47 6.13168 12.4958 6.26171 12.5461 6.38304C12.5963 6.50437 12.67 6.6146 12.7629 6.70746C12.8557 6.80032 12.966 6.87398 13.0873 6.92424C13.2086 6.97449 13.3386 7.00036 13.47 7.00036ZM17.91 11.0004C17.69 11.0004 17.46 10.9304 17.24 10.8804C16.7944 10.7822 16.3566 10.6518 15.93 10.4904C15.4661 10.3216 14.9561 10.3304 14.4983 10.515C14.0404 10.6996 13.667 11.047 13.45 11.4904L13.23 11.9404C12.2545 11.3962 11.3564 10.7235 10.56 9.94036C9.78064 9.14428 9.10832 8.25009 8.55996 7.28036L8.99996 7.00036C9.44333 6.78327 9.79074 6.40989 9.97536 5.95205C10.16 5.49421 10.1687 4.98427 9.99996 4.52036C9.84119 4.09278 9.7109 3.65515 9.60996 3.21036C9.55996 2.98036 9.51996 2.76036 9.48996 2.53036C9.36853 1.82598 8.99959 1.1881 8.44958 0.731596C7.89958 0.275093 7.20466 0.0299652 6.48996 0.0403564H3.48996C3.06721 0.0398026 2.64911 0.128604 2.26308 0.30094C1.87705 0.473276 1.5318 0.725254 1.24996 1.04036C0.963653 1.36285 0.750236 1.74329 0.624261 2.15573C0.498285 2.56817 0.462711 3.00292 0.519964 3.43036C1.04668 7.6174 2.95234 11.5099 5.93636 14.494C8.92038 17.478 12.8129 19.3836 17 19.9104C17.1298 19.9203 17.2602 19.9203 17.39 19.9104C18.1856 19.9104 18.9487 19.5943 19.5113 19.0317C20.0739 18.4691 20.39 17.706 20.39 16.9104V13.9104C20.3796 13.2126 20.1263 12.5402 19.6736 12.0091C19.2209 11.478 18.5973 11.1212 17.91 11.0004ZM18.4 17.0004C18.4016 17.1453 18.3717 17.2889 18.3124 17.4211C18.253 17.5534 18.1656 17.6712 18.0562 17.7663C17.9468 17.8614 17.8181 17.9316 17.6788 17.972C17.5396 18.0124 17.3933 18.0221 17.25 18.0004C13.5161 17.5131 10.0471 15.8085 7.37996 13.1504C4.71496 10.4652 3.01321 6.97379 2.53996 3.22036C2.51824 3.07369 2.5294 2.92403 2.57264 2.78221C2.61588 2.64039 2.69011 2.50996 2.78996 2.40036C2.88256 2.29494 2.99629 2.21019 3.12379 2.15162C3.25128 2.09304 3.38967 2.06194 3.52996 2.06036H6.52996C6.76251 2.05518 6.98959 2.13124 7.17211 2.27543C7.35463 2.41962 7.48117 2.62293 7.52996 2.85036C7.56996 3.12369 7.61996 3.39369 7.67996 3.66036C7.79548 4.1875 7.94922 4.70554 8.13996 5.21036L6.73996 5.86036C6.62026 5.91528 6.51259 5.9933 6.42312 6.08995C6.33366 6.1866 6.26416 6.29997 6.21864 6.42355C6.17311 6.54713 6.15244 6.67849 6.15781 6.81008C6.16319 6.94167 6.1945 7.0709 6.24996 7.19036C7.68916 10.2731 10.1672 12.7512 13.25 14.1904C13.4934 14.2904 13.7665 14.2904 14.01 14.1904C14.2581 14.098 14.4595 13.911 14.57 13.6704L15.2 12.2704C15.7169 12.4552 16.2446 12.6088 16.78 12.7304C17.04 12.7904 17.32 12.8404 17.59 12.8804C17.8155 12.9312 18.0166 13.0586 18.1588 13.2409C18.301 13.4232 18.3756 13.6492 18.37 13.8804L18.4 17.0004Z" fill="#2ED8E3"/>
</svg>
