<svg width="18" height="18" viewBox="0 0 18 18" fill="none" xmlns="http://www.w3.org/2000/svg">
<path d="M4.8327 4.0001C4.66788 4.0001 4.50676 4.04897 4.36972 4.14054C4.23268 4.23211 4.12587 4.36225 4.0628 4.51453C3.99972 4.6668 3.98322 4.83435 4.01537 4.996C4.04753 5.15765 4.1269 5.30614 4.24344 5.42268C4.35998 5.53923 4.50847 5.6186 4.67012 5.65075C4.83177 5.6829 4.99933 5.6664 5.1516 5.60333C5.30387 5.54026 5.43402 5.43344 5.52559 5.2964C5.61716 5.15936 5.66603 4.99825 5.66603 4.83343C5.66603 4.61241 5.57823 4.40045 5.42195 4.24417C5.26567 4.08789 5.05371 4.0001 4.8327 4.0001ZM17.091 8.81676L9.19103 0.933429C9.11333 0.849648 9.01923 0.782741 8.91458 0.736867C8.80993 0.690992 8.69696 0.66713 8.5827 0.666762H3.5827C3.47302 0.666128 3.36431 0.687149 3.26277 0.728619C3.16124 0.77009 3.0689 0.831194 2.99103 0.908429L0.907696 2.98343C0.830462 3.0613 0.769357 3.15364 0.727887 3.25517C0.686416 3.3567 0.665395 3.46542 0.66603 3.57509V8.5751C0.669099 8.79573 0.755418 9.00707 0.907696 9.16676L8.81603 17.0834C8.97572 17.2357 9.18706 17.322 9.4077 17.3251C9.51737 17.3257 9.62609 17.3047 9.72762 17.2632C9.82915 17.2218 9.9215 17.1607 9.99936 17.0834L17.091 9.99176C17.1683 9.91389 17.2294 9.82155 17.2708 9.72002C17.3123 9.61849 17.3333 9.50977 17.3327 9.40009C17.3276 9.18235 17.2414 8.97435 17.091 8.81676ZM9.4077 15.3251L2.3327 8.24176V3.91676L3.91603 2.33343H8.2327L15.316 9.40843L9.4077 15.3251Z" fill="#19B3BD"/>
</svg>
