<svg width="20" height="19" viewBox="0 0 20 19" fill="none" xmlns="http://www.w3.org/2000/svg">
<path d="M9.87913 4.78354C7.18181 4.78354 5.00614 6.88765 5.00614 9.49624C5.00614 12.1048 7.18181 14.2089 9.87913 14.2089C12.5764 14.2089 14.7521 12.1048 14.7521 9.49624C14.7521 6.88765 12.5764 4.78354 9.87913 4.78354ZM9.87913 12.5601C8.13605 12.5601 6.71105 11.1861 6.71105 9.49624C6.71105 7.8064 8.13181 6.43237 9.87913 6.43237C11.6264 6.43237 13.0472 7.8064 13.0472 9.49624C13.0472 11.1861 11.6222 12.5601 9.87913 12.5601ZM16.0881 4.59077C16.0881 5.2019 15.5791 5.68999 14.9515 5.68999C14.3195 5.68999 13.8148 5.1978 13.8148 4.59077C13.8148 3.98374 14.3238 3.49155 14.9515 3.49155C15.5791 3.49155 16.0881 3.98374 16.0881 4.59077ZM19.3155 5.7064C19.2434 4.23393 18.8956 2.92964 17.7802 1.85503C16.6691 0.78042 15.3204 0.444092 13.7979 0.370264C12.2287 0.284131 7.52533 0.284131 5.95614 0.370264C4.43783 0.43999 3.08917 0.776318 1.97377 1.85093C0.858367 2.92554 0.51484 4.22983 0.438501 5.70229C0.349438 7.21987 0.349438 11.7685 0.438501 13.2861C0.510599 14.7585 0.858367 16.0628 1.97377 17.1374C3.08917 18.2121 4.43359 18.5484 5.95614 18.6222C7.52533 18.7083 12.2287 18.7083 13.7979 18.6222C15.3204 18.5525 16.6691 18.2162 17.7802 17.1374C18.8914 16.0628 19.2392 14.7585 19.3155 13.2861C19.4046 11.7685 19.4046 7.22397 19.3155 5.7064ZM17.2883 14.9144C16.9575 15.7183 16.3171 16.3376 15.4816 16.6617C14.2305 17.1416 11.2617 17.0308 9.87913 17.0308C8.49654 17.0308 5.52355 17.1374 4.27667 16.6617C3.44542 16.3417 2.80502 15.7224 2.46997 14.9144C1.97377 13.7044 2.08828 10.8333 2.08828 9.49624C2.08828 8.15913 1.97801 5.28393 2.46997 4.07808C2.80078 3.27417 3.44118 2.65483 4.27667 2.33081C5.52779 1.85093 8.49654 1.96167 9.87913 1.96167C11.2617 1.96167 14.2347 1.85503 15.4816 2.33081C16.3128 2.65073 16.9532 3.27007 17.2883 4.07808C17.7845 5.28804 17.67 8.15913 17.67 9.49624C17.67 10.8333 17.7845 13.7085 17.2883 14.9144Z" fill="#F1F1F1"/>
</svg>
