<svg width="18" height="18" viewBox="0 0 18 18" fill="none" xmlns="http://www.w3.org/2000/svg">
<path d="M16.0585 0.667109H1.9418C1.78311 0.664905 1.62555 0.693982 1.4781 0.752679C1.33066 0.811375 1.19622 0.898543 1.08246 1.0092C0.968707 1.11986 0.877865 1.25185 0.815123 1.39762C0.752382 1.54339 0.718971 1.70009 0.716797 1.85878V16.1421C0.718971 16.3008 0.752382 16.4575 0.815123 16.6033C0.877865 16.749 0.968707 16.881 1.08246 16.9917C1.19622 17.1023 1.33066 17.1895 1.4781 17.2482C1.62555 17.3069 1.78311 17.336 1.9418 17.3338H16.0585C16.2171 17.336 16.3747 17.3069 16.5222 17.2482C16.6696 17.1895 16.804 17.1023 16.9178 16.9917C17.0316 16.881 17.1224 16.749 17.1851 16.6033C17.2479 16.4575 17.2813 16.3008 17.2835 16.1421V1.85878C17.2813 1.70009 17.2479 1.54339 17.1851 1.39762C17.1224 1.25185 17.0316 1.11986 16.9178 1.0092C16.804 0.898543 16.6696 0.811375 16.5222 0.752679C16.3747 0.693982 16.2171 0.664905 16.0585 0.667109ZM5.7418 14.6171H3.2418V7.11711H5.7418V14.6171ZM4.4918 6.06711C4.14702 6.06711 3.81635 5.93014 3.57256 5.68635C3.32876 5.44255 3.1918 5.11189 3.1918 4.76711C3.1918 4.42233 3.32876 4.09167 3.57256 3.84787C3.81635 3.60407 4.14702 3.46711 4.4918 3.46711C4.67488 3.44635 4.86028 3.46449 5.03586 3.52034C5.21144 3.5762 5.37325 3.66852 5.51068 3.79124C5.64811 3.91397 5.75807 4.06434 5.83336 4.23251C5.90864 4.40068 5.94756 4.58286 5.94756 4.76711C5.94756 4.95136 5.90864 5.13354 5.83336 5.30171C5.75807 5.46988 5.64811 5.62025 5.51068 5.74297C5.37325 5.8657 5.21144 5.95801 5.03586 6.01387C4.86028 6.06973 4.67488 6.08787 4.4918 6.06711ZM14.7585 14.6171H12.2585V10.5921C12.2585 9.58378 11.9001 8.92544 10.9918 8.92544C10.7107 8.9275 10.437 9.01568 10.2075 9.17809C9.97803 9.3405 9.80387 9.56934 9.70846 9.83378C9.64325 10.0296 9.61499 10.2359 9.62513 10.4421V14.6088H7.12513C7.12513 14.6088 7.12513 7.79211 7.12513 7.10878H9.62513V8.16711C9.85224 7.77303 10.1826 7.44838 10.5805 7.22811C10.9784 7.00785 11.4289 6.90032 11.8835 6.91711C13.5501 6.91711 14.7585 7.99211 14.7585 10.3004V14.6171Z" fill="#617283"/>
</svg>
