<svg width="14" height="18" viewBox="0 0 14 18" fill="none" xmlns="http://www.w3.org/2000/svg">
<path d="M7.00065 0.666748C5.23254 0.666748 3.53685 1.36913 2.28661 2.61937C1.03636 3.86961 0.333984 5.5653 0.333984 7.33342C0.333984 11.8334 6.20898 16.9167 6.45898 17.1334C6.60993 17.2625 6.80202 17.3335 7.00065 17.3335C7.19928 17.3335 7.39137 17.2625 7.54232 17.1334C7.83398 16.9167 13.6673 11.8334 13.6673 7.33342C13.6673 5.5653 12.9649 3.86961 11.7147 2.61937C10.4645 1.36913 8.76876 0.666748 7.00065 0.666748ZM7.00065 15.3751C5.22565 13.7084 2.00065 10.1167 2.00065 7.33342C2.00065 6.00733 2.52744 4.73556 3.46512 3.79788C4.4028 2.8602 5.67457 2.33341 7.00065 2.33341C8.32673 2.33341 9.5985 2.8602 10.5362 3.79788C11.4739 4.73556 12.0006 6.00733 12.0007 7.33342C12.0007 10.1167 8.77565 13.7167 7.00065 15.3751ZM7.00065 4.00008C6.34138 4.00008 5.69691 4.19558 5.14875 4.56185C4.60059 4.92812 4.17334 5.44872 3.92105 6.0578C3.66876 6.66689 3.60275 7.33711 3.73137 7.98372C3.85998 8.63032 4.17745 9.22426 4.64363 9.69044C5.1098 10.1566 5.70375 10.4741 6.35035 10.6027C6.99695 10.7313 7.66717 10.6653 8.27626 10.413C8.88535 10.1607 9.40594 9.73348 9.77221 9.18532C10.1385 8.63715 10.334 7.99269 10.334 7.33342C10.334 6.44936 9.98279 5.60151 9.35767 4.97639C8.73255 4.35127 7.88471 4.00008 7.00065 4.00008ZM7.00065 9.00008C6.67101 9.00008 6.34878 8.90233 6.0747 8.7192C5.80062 8.53606 5.587 8.27576 5.46085 7.97122C5.33471 7.66668 5.3017 7.33157 5.36601 7.00826C5.43032 6.68496 5.58905 6.38799 5.82214 6.1549C6.05523 5.92182 6.3522 5.76308 6.6755 5.69877C6.9988 5.63446 7.33391 5.66747 7.63846 5.79362C7.943 5.91976 8.2033 6.13338 8.38643 6.40746C8.56957 6.68155 8.66732 7.00378 8.66732 7.33342C8.66732 7.77544 8.49172 8.19937 8.17916 8.51193C7.8666 8.82449 7.44268 9.00008 7.00065 9.00008Z" fill="#078FF7"/>
</svg>
