<svg width="35" height="34" viewBox="0 0 35 34" fill="none" xmlns="http://www.w3.org/2000/svg">
<path d="M16.3154 23.1833C16.5485 23.4183 16.8463 23.5786 17.1709 23.6437C17.4955 23.7088 17.8321 23.6758 18.1378 23.5489C18.4436 23.4219 18.7046 23.2068 18.8876 22.9309C19.0706 22.6551 19.1673 22.331 19.1654 21.9999C19.1592 21.5586 18.9866 21.136 18.682 20.8166C18.4477 20.5853 18.15 20.4287 17.8267 20.3664C17.5034 20.3041 17.1689 20.339 16.8654 20.4666C16.6608 20.5459 16.4739 20.6649 16.3154 20.8166C16.0108 21.136 15.8382 21.5586 15.832 21.9999C15.8308 22.2193 15.8728 22.4367 15.9557 22.6398C16.0387 22.8428 16.1609 23.0275 16.3154 23.1833ZM30.682 22.8499H23.132C22.69 22.8499 22.2661 23.0255 21.9535 23.3381C21.641 23.6506 21.4654 24.0746 21.4654 24.5166C21.4654 24.9586 21.641 25.3825 21.9535 25.6951C22.2661 26.0077 22.69 26.1833 23.132 26.1833H27.132C25.2936 28.1045 22.9227 29.4321 20.324 29.9956C17.7252 30.559 15.0174 30.3326 12.5483 29.3453C10.0793 28.3581 7.96181 26.6551 6.46802 24.4552C4.97422 22.2553 4.17232 19.659 4.16536 16.9999C4.16536 16.5579 3.98977 16.134 3.67721 15.8214C3.36465 15.5088 2.94073 15.3333 2.4987 15.3333C2.05667 15.3333 1.63275 15.5088 1.32019 15.8214C1.00763 16.134 0.832031 16.5579 0.832031 16.9999C0.840842 20.2546 1.8024 23.4354 3.59804 26.15C5.39367 28.8645 7.94481 30.9939 10.9366 32.2753C13.9284 33.5567 17.2299 33.9342 20.4337 33.361C23.6375 32.7878 26.6034 31.2891 28.9654 29.0499V31.9999C28.9654 32.4419 29.141 32.8659 29.4535 33.1784C29.7661 33.491 30.19 33.6666 30.632 33.6666C31.0741 33.6666 31.498 33.491 31.8105 33.1784C32.1231 32.8659 32.2987 32.4419 32.2987 31.9999V24.4999C32.2946 24.0693 32.124 23.657 31.8226 23.3494C31.5212 23.0418 31.1125 22.8628 30.682 22.8499ZM17.4987 0.333252C13.226 0.345439 9.12118 1.99811 6.03203 4.94992V1.99992C6.03203 1.55789 5.85644 1.13397 5.54388 0.821407C5.23132 0.508847 4.80739 0.333252 4.36536 0.333252C3.92334 0.333252 3.49941 0.508847 3.18685 0.821407C2.87429 1.13397 2.6987 1.55789 2.6987 1.99992V9.49992C2.6987 9.94195 2.87429 10.3659 3.18685 10.6784C3.49941 10.991 3.92334 11.1666 4.36536 11.1666H11.8654C12.3074 11.1666 12.7313 10.991 13.0439 10.6784C13.3564 10.3659 13.532 9.94195 13.532 9.49992C13.532 9.05789 13.3564 8.63397 13.0439 8.32141C12.7313 8.00885 12.3074 7.83325 11.8654 7.83325H7.86536C9.70281 5.91304 12.0722 4.58575 14.6694 4.02177C17.2665 3.45778 19.973 3.68283 22.4414 4.66802C24.9097 5.65322 27.0274 7.3536 28.5224 9.55092C30.0175 11.7482 30.8218 14.3422 30.832 16.9999C30.832 17.4419 31.0076 17.8659 31.3202 18.1784C31.6327 18.491 32.0567 18.6666 32.4987 18.6666C32.9407 18.6666 33.3647 18.491 33.6772 18.1784C33.9898 17.8659 34.1654 17.4419 34.1654 16.9999C34.1654 14.8112 33.7343 12.644 32.8967 10.6219C32.0591 8.59977 30.8315 6.76245 29.2838 5.21481C27.7362 3.66716 25.8988 2.4395 23.8768 1.60193C21.8547 0.764348 19.6874 0.333252 17.4987 0.333252ZM17.4987 18.6666C17.9407 18.6666 18.3646 18.491 18.6772 18.1784C18.9898 17.8659 19.1654 17.4419 19.1654 16.9999V11.9999C19.1654 11.5579 18.9898 11.134 18.6772 10.8214C18.3646 10.5088 17.9407 10.3333 17.4987 10.3333C17.0567 10.3333 16.6327 10.5088 16.3202 10.8214C16.0076 11.134 15.832 11.5579 15.832 11.9999V16.9999C15.832 17.4419 16.0076 17.8659 16.3202 18.1784C16.6327 18.491 17.0567 18.6666 17.4987 18.6666Z" fill="#078FF7"/>
</svg>
