<svg width="21" height="21" viewBox="0 0 21 21" fill="none" xmlns="http://www.w3.org/2000/svg">
<path d="M2.62447 13.9999C4.00921 15.3866 5.85324 16.2191 7.80917 16.3405C9.7651 16.4618 11.6979 15.8638 13.2435 14.6589L18.5615 19.9769C18.7501 20.1591 19.0027 20.2599 19.2649 20.2576C19.5271 20.2553 19.7779 20.1502 19.9633 19.9648C20.1487 19.7793 20.2539 19.5285 20.2561 19.2663C20.2584 19.0041 20.1576 18.7515 19.9755 18.5629L14.6575 13.2449C15.9158 11.6301 16.5107 9.59608 16.3209 7.5577C16.131 5.51933 15.1708 3.63013 13.636 2.2754C12.1011 0.920666 10.1073 0.202446 8.06114 0.267212C6.01496 0.331978 4.07056 1.17485 2.62447 2.62393C1.87727 3.37076 1.28454 4.25748 0.880131 5.23345C0.475726 6.20942 0.267578 7.2555 0.267578 8.31193C0.267578 9.36837 0.475726 10.4145 0.880131 11.3904C1.28454 12.3664 1.87727 13.2531 2.62447 13.9999ZM4.03847 4.03993C5.02705 3.05138 6.3278 2.43618 7.7191 2.29913C9.1104 2.16209 10.5062 2.51168 11.6686 3.28836C12.8311 4.06503 13.6883 5.22073 14.0942 6.55855C14.5001 7.89637 14.4296 9.33354 13.8946 10.6252C13.3597 11.9169 12.3935 12.9831 11.1606 13.6422C9.9277 14.3014 8.5044 14.5126 7.13319 14.24C5.76199 13.9674 4.52772 13.2279 3.64067 12.1473C2.75362 11.0667 2.26868 9.71197 2.26847 8.31393C2.26573 7.51951 2.42078 6.73245 2.72462 5.99842C3.02846 5.26439 3.47505 4.598 4.03847 4.03793V4.03993Z" fill="#078FF7"/>
</svg>
