<svg width="104" height="104" viewBox="0 0 104 104" fill="none" xmlns="http://www.w3.org/2000/svg">
<rect width="104" height="104" fill="white"/>
<path d="M71.7632 45C72.2247 45 72.6759 44.8632 73.0596 44.6068C73.4433 44.3504 73.7424 43.986 73.919 43.5596C74.0956 43.1333 74.1418 42.6641 74.0517 42.2115C73.9617 41.7589 73.7395 41.3431 73.4132 41.0168C73.0868 40.6904 72.6711 40.4682 72.2185 40.3782C71.7658 40.2882 71.2967 40.3344 70.8703 40.511C70.444 40.6876 70.0795 40.9866 69.8232 41.3704C69.5668 41.7541 69.4299 42.2052 69.4299 42.6667C69.4299 43.2855 69.6757 43.879 70.1133 44.3166C70.5509 44.7542 71.1444 45 71.7632 45ZM64.7632 45C65.2247 45 65.6759 44.8632 66.0596 44.6068C66.4433 44.3504 66.7424 43.986 66.919 43.5596C67.0956 43.1333 67.1418 42.6641 67.0517 42.2115C66.9617 41.7589 66.7395 41.3431 66.4132 41.0168C66.0868 40.6904 65.6711 40.4682 65.2185 40.3782C64.7658 40.2882 64.2967 40.3344 63.8703 40.511C63.444 40.6876 63.0795 40.9866 62.8232 41.3704C62.5668 41.7541 62.4299 42.2052 62.4299 42.6667C62.4299 43.2855 62.6757 43.879 63.1133 44.3166C63.5509 44.7542 64.1444 45 64.7632 45ZM57.7632 45C58.2247 45 58.6759 44.8632 59.0596 44.6068C59.4433 44.3504 59.7424 43.986 59.919 43.5596C60.0956 43.1333 60.1418 42.6641 60.0517 42.2115C59.9617 41.7589 59.7395 41.3431 59.4132 41.0168C59.0868 40.6904 58.6711 40.4682 58.2185 40.3782C57.7658 40.2882 57.2967 40.3344 56.8703 40.511C56.444 40.6876 56.0795 40.9866 55.8232 41.3704C55.5668 41.7541 55.4299 42.2052 55.4299 42.6667C55.4299 42.9731 55.4903 43.2765 55.6075 43.5596C55.7248 43.8427 55.8967 44.0999 56.1133 44.3166C56.33 44.5333 56.5872 44.7051 56.8703 44.8224C57.1534 44.9397 57.4568 45 57.7632 45ZM68.1232 54.3334C67.6099 54.3334 67.0732 54.17 66.5599 54.0534C65.5204 53.8243 64.4988 53.5201 63.5033 53.1434C62.4208 52.7496 61.2309 52.77 60.1626 53.2008C59.0943 53.6315 58.2231 54.4422 57.7166 55.4767L57.2032 56.5267C54.9271 55.2569 52.8317 53.6874 50.9732 51.86C49.1548 50.0025 47.5861 47.9161 46.3066 45.6534L47.3332 45C48.3678 44.4935 49.1784 43.6223 49.6092 42.554C50.0399 41.4857 50.0604 40.2958 49.6666 39.2134C49.2961 38.2157 48.9921 37.1945 48.7566 36.1567C48.6399 35.62 48.5466 35.1067 48.4766 34.57C48.1932 32.9265 47.3324 31.4381 46.049 30.3729C44.7657 29.3077 43.1442 28.7358 41.4766 28.76H34.4766C33.4902 28.7587 32.5146 28.9659 31.6139 29.368C30.7131 29.7702 29.9075 30.3581 29.2499 31.0934C28.5819 31.8458 28.0839 32.7335 27.7899 33.6959C27.496 34.6582 27.413 35.6727 27.5466 36.67C28.7756 46.4398 33.2221 55.5224 40.1848 62.4851C47.1476 69.4478 56.2301 73.8944 65.9999 75.1234C66.3028 75.1465 66.607 75.1465 66.9099 75.1234C68.7664 75.1234 70.5469 74.3859 71.8597 73.0731C73.1724 71.7603 73.9099 69.9799 73.9099 68.1234V61.1234C73.8857 59.4952 73.2946 57.9264 72.2384 56.6871C71.1822 55.4478 69.727 54.6154 68.1232 54.3334ZM69.2666 68.3334C69.2704 68.6716 69.2007 69.0066 69.0622 69.3152C68.9237 69.6238 68.7197 69.8986 68.4645 70.1205C68.2092 70.3425 67.9088 70.5063 67.584 70.6006C67.2591 70.6949 66.9177 70.7174 66.5832 70.6667C57.8709 69.5298 49.7765 65.5523 43.5532 59.35C37.3349 53.0847 33.3641 44.938 32.2599 36.18C32.2092 35.8378 32.2353 35.4886 32.3362 35.1577C32.437 34.8268 32.6103 34.5224 32.8432 34.2667C33.0593 34.0207 33.3247 33.823 33.6222 33.6863C33.9196 33.5496 34.2426 33.4771 34.5699 33.4734H41.5699C42.1125 33.4613 42.6424 33.6387 43.0683 33.9752C43.4941 34.3116 43.7894 34.786 43.9032 35.3167C43.9966 35.9545 44.1132 36.5845 44.2532 37.2067C44.5228 38.4367 44.8815 39.6454 45.3266 40.8234L42.0599 42.34C41.7806 42.4682 41.5294 42.6502 41.3206 42.8757C41.1119 43.1013 40.9497 43.3658 40.8435 43.6541C40.7372 43.9425 40.689 44.249 40.7016 44.556C40.7141 44.8631 40.7872 45.1646 40.9166 45.4434C44.2747 52.6364 50.0568 58.4186 57.2499 61.7767C57.818 62.0101 58.4552 62.0101 59.0232 61.7767C59.6023 61.5612 60.0722 61.1248 60.3299 60.5634L61.7999 57.2967C63.0062 57.7281 64.2373 58.0865 65.4866 58.37C66.0933 58.51 66.7466 58.6267 67.3766 58.72C67.9029 58.8386 68.3719 59.1358 68.7038 59.5613C69.0356 59.9867 69.2098 60.514 69.1966 61.0534L69.2666 68.3334Z" fill="#078FF7"/>
</svg>
