<svg width="18" height="14" viewBox="0 0 18 14" fill="none" xmlns="http://www.w3.org/2000/svg">
<path d="M17.3337 1.83351C16.7073 2.10525 16.0448 2.28489 15.367 2.36684C16.0821 1.93961 16.6181 1.26749 16.8753 0.475175C16.2033 0.875227 15.4676 1.15709 14.7003 1.30851C14.1874 0.752318 13.5045 0.382088 12.7585 0.255884C12.0125 0.12968 11.2458 0.25464 10.5785 0.611166C9.91119 0.967692 9.3811 1.53562 9.07136 2.22587C8.76162 2.91613 8.68974 3.68967 8.86699 4.42517C7.50818 4.35645 6.17903 4.00264 4.96587 3.38673C3.75272 2.77082 2.6827 1.90659 1.82533 0.850175C1.52461 1.37531 1.36659 1.97003 1.36699 2.57517C1.36593 3.13716 1.50384 3.69069 1.76845 4.18648C2.03307 4.68227 2.41617 5.10493 2.88366 5.41684C2.34031 5.40206 1.80856 5.25626 1.33366 4.99184V5.03351C1.33773 5.82092 1.61365 6.58275 2.11475 7.19015C2.61585 7.79754 3.31137 8.21321 4.08366 8.36684C3.78637 8.45731 3.47772 8.50501 3.16699 8.50851C2.9519 8.506 2.73734 8.48649 2.52533 8.45017C2.74525 9.12752 3.17084 9.71946 3.74289 10.1436C4.31493 10.5678 5.00497 10.8031 5.71699 10.8168C4.51466 11.7629 3.03023 12.2792 1.50033 12.2835C1.22177 12.2844 0.943439 12.2677 0.666992 12.2335C2.22902 13.2421 4.04934 13.7774 5.90866 13.7752C7.19174 13.7885 8.46461 13.546 9.65292 13.0619C10.8412 12.5778 11.9212 11.8617 12.8297 10.9556C13.7381 10.0494 14.457 8.97133 14.9441 7.78426C15.4313 6.59719 15.677 5.32495 15.667 4.04184C15.667 3.90017 15.667 3.75017 15.667 3.60017C16.3209 3.11252 16.8849 2.5147 17.3337 1.83351Z" fill="#617283"/>
</svg>
