<svg width="23" height="19" viewBox="0 0 23 19" fill="none" xmlns="http://www.w3.org/2000/svg">
<path d="M20.1172 5.22229C20.1312 5.40883 20.1312 5.59541 20.1312 5.78195C20.1312 11.4716 15.5944 18.0275 7.30252 18.0275C4.74794 18.0275 2.37486 17.3212 0.378662 16.0954C0.741619 16.1354 1.09057 16.1487 1.46749 16.1487C3.57532 16.1487 5.51571 15.4691 7.0652 14.3099C5.08297 14.2699 3.4218 13.0307 2.84945 11.3251C3.12866 11.365 3.40783 11.3917 3.70101 11.3917C4.10581 11.3917 4.51067 11.3384 4.88755 11.2451C2.82156 10.8454 1.27203 9.11316 1.27203 7.02116V6.96788C1.87226 7.28768 2.57028 7.48754 3.31008 7.51416C2.09561 6.74131 1.29996 5.42216 1.29996 3.92977C1.29996 3.13029 1.52326 2.39742 1.91415 1.75783C4.1337 4.3695 7.47001 6.07505 11.2111 6.26163C11.1413 5.94183 11.0994 5.60874 11.0994 5.27561C11.0994 2.90376 13.1096 0.97168 15.6083 0.97168C16.9065 0.97168 18.0791 1.49135 18.9027 2.33081C19.9217 2.14428 20.8989 1.78449 21.7644 1.29148C21.4293 2.29087 20.7174 3.13033 19.7821 3.66329C20.6895 3.57006 21.569 3.33016 22.3786 2.99707C21.7645 3.84983 20.9967 4.60931 20.1172 5.22229Z" fill="#F1F1F1"/>
</svg>
