<svg width="18" height="20" viewBox="0 0 18 20" fill="none" xmlns="http://www.w3.org/2000/svg">
<path d="M8.99935 15.8333C9.16417 15.8333 9.32528 15.7844 9.46233 15.6928C9.59937 15.6012 9.70618 15.4711 9.76925 15.3188C9.83232 15.1665 9.84882 14.999 9.81667 14.8373C9.78452 14.6757 9.70515 14.5272 9.5886 14.4107C9.47206 14.2941 9.32358 14.2148 9.16192 14.1826C9.00027 14.1504 8.83272 14.1669 8.68045 14.23C8.52817 14.2931 8.39803 14.3999 8.30646 14.5369C8.21489 14.674 8.16602 14.8351 8.16602 14.9999C8.16602 15.2209 8.25381 15.4329 8.41009 15.5892C8.56637 15.7455 8.77834 15.8333 8.99935 15.8333ZM13.166 15.8333C13.3308 15.8333 13.492 15.7844 13.629 15.6928C13.766 15.6012 13.8728 15.4711 13.9359 15.3188C13.999 15.1665 14.0155 14.999 13.9833 14.8373C13.9512 14.6757 13.8718 14.5272 13.7553 14.4107C13.6387 14.2941 13.4902 14.2148 13.3286 14.1826C13.1669 14.1504 12.9994 14.1669 12.8471 14.23C12.6948 14.2931 12.5647 14.3999 12.4731 14.5369C12.3816 14.674 12.3327 14.8351 12.3327 14.9999C12.3327 15.2209 12.4205 15.4329 12.5768 15.5892C12.733 15.7455 12.945 15.8333 13.166 15.8333ZM13.166 12.4999C13.3308 12.4999 13.492 12.451 13.629 12.3595C13.766 12.2679 13.8728 12.1378 13.9359 11.9855C13.999 11.8332 14.0155 11.6657 13.9833 11.504C13.9512 11.3424 13.8718 11.1939 13.7553 11.0773C13.6387 10.9608 13.4902 10.8814 13.3286 10.8493C13.1669 10.8171 12.9994 10.8336 12.8471 10.8967C12.6948 10.9598 12.5647 11.0666 12.4731 11.2036C12.3816 11.3406 12.3327 11.5018 12.3327 11.6666C12.3327 11.8876 12.4205 12.0996 12.5768 12.2558C12.733 12.4121 12.945 12.4999 13.166 12.4999ZM8.99935 12.4999C9.16417 12.4999 9.32528 12.451 9.46233 12.3595C9.59937 12.2679 9.70618 12.1378 9.76925 11.9855C9.83232 11.8332 9.84882 11.6657 9.81667 11.504C9.78452 11.3424 9.70515 11.1939 9.5886 11.0773C9.47206 10.9608 9.32358 10.8814 9.16192 10.8493C9.00027 10.8171 8.83272 10.8336 8.68045 10.8967C8.52817 10.9598 8.39803 11.0666 8.30646 11.2036C8.21489 11.3406 8.16602 11.5018 8.16602 11.6666C8.16602 11.8876 8.25381 12.0996 8.41009 12.2558C8.56637 12.4121 8.77834 12.4999 8.99935 12.4999ZM14.8327 2.49992H13.9993V1.66659C13.9993 1.44557 13.9116 1.23361 13.7553 1.07733C13.599 0.921049 13.387 0.833252 13.166 0.833252C12.945 0.833252 12.733 0.921049 12.5768 1.07733C12.4205 1.23361 12.3327 1.44557 12.3327 1.66659V2.49992H5.66602V1.66659C5.66602 1.44557 5.57822 1.23361 5.42194 1.07733C5.26566 0.921049 5.0537 0.833252 4.83268 0.833252C4.61167 0.833252 4.39971 0.921049 4.24343 1.07733C4.08715 1.23361 3.99935 1.44557 3.99935 1.66659V2.49992H3.16602C2.50297 2.49992 1.86709 2.76331 1.39825 3.23215C0.929408 3.70099 0.666016 4.33688 0.666016 4.99992V16.6666C0.666016 17.3296 0.929408 17.9655 1.39825 18.4344C1.86709 18.9032 2.50297 19.1666 3.16602 19.1666H14.8327C15.4957 19.1666 16.1316 18.9032 16.6005 18.4344C17.0693 17.9655 17.3327 17.3296 17.3327 16.6666V4.99992C17.3327 4.33688 17.0693 3.70099 16.6005 3.23215C16.1316 2.76331 15.4957 2.49992 14.8327 2.49992ZM15.666 16.6666C15.666 16.8876 15.5782 17.0996 15.4219 17.2558C15.2657 17.4121 15.0537 17.4999 14.8327 17.4999H3.16602C2.945 17.4999 2.73304 17.4121 2.57676 17.2558C2.42048 17.0996 2.33268 16.8876 2.33268 16.6666V9.16658H15.666V16.6666ZM15.666 7.49992H2.33268V4.99992C2.33268 4.7789 2.42048 4.56694 2.57676 4.41066C2.73304 4.25438 2.945 4.16658 3.16602 4.16658H3.99935V4.99992C3.99935 5.22093 4.08715 5.43289 4.24343 5.58917C4.39971 5.74545 4.61167 5.83325 4.83268 5.83325C5.0537 5.83325 5.26566 5.74545 5.42194 5.58917C5.57822 5.43289 5.66602 5.22093 5.66602 4.99992V4.16658H12.3327V4.99992C12.3327 5.22093 12.4205 5.43289 12.5768 5.58917C12.733 5.74545 12.945 5.83325 13.166 5.83325C13.387 5.83325 13.599 5.74545 13.7553 5.58917C13.9116 5.43289 13.9993 5.22093 13.9993 4.99992V4.16658H14.8327C15.0537 4.16658 15.2657 4.25438 15.4219 4.41066C15.5782 4.56694 15.666 4.7789 15.666 4.99992V7.49992ZM4.83268 12.4999C4.9975 12.4999 5.15862 12.451 5.29566 12.3595C5.4327 12.2679 5.53951 12.1378 5.60258 11.9855C5.66566 11.8332 5.68216 11.6657 5.65 11.504C5.61785 11.3424 5.53848 11.1939 5.42194 11.0773C5.30539 10.9608 5.15691 10.8814 4.99526 10.8493C4.83361 10.8171 4.66605 10.8336 4.51378 10.8967C4.36151 10.9598 4.23136 11.0666 4.13979 11.2036C4.04822 11.3406 3.99935 11.5018 3.99935 11.6666C3.99935 11.8876 4.08715 12.0996 4.24343 12.2558C4.39971 12.4121 4.61167 12.4999 4.83268 12.4999ZM4.83268 15.8333C4.9975 15.8333 5.15862 15.7844 5.29566 15.6928C5.4327 15.6012 5.53951 15.4711 5.60258 15.3188C5.66566 15.1665 5.68216 14.999 5.65 14.8373C5.61785 14.6757 5.53848 14.5272 5.42194 14.4107C5.30539 14.2941 5.15691 14.2148 4.99526 14.1826C4.83361 14.1504 4.66605 14.1669 4.51378 14.23C4.36151 14.2931 4.23136 14.3999 4.13979 14.5369C4.04822 14.674 3.99935 14.8351 3.99935 14.9999C3.99935 15.2209 4.08715 15.4329 4.24343 15.5892C4.39971 15.7455 4.61167 15.8333 4.83268 15.8333Z" fill="white"/>
</svg>
