<svg width="20" height="14" viewBox="0 0 20 14" fill="none" xmlns="http://www.w3.org/2000/svg">
<path d="M19.1669 5.0919C19.2081 3.89911 18.9472 2.71524 18.4085 1.65023C18.043 1.21323 17.5358 0.918323 16.9752 0.816897C14.6565 0.606502 12.3281 0.520268 10.0002 0.558564C7.68072 0.518529 5.36078 0.601981 3.05019 0.808564C2.59337 0.891661 2.17062 1.10593 1.83352 1.42523C1.08352 2.1169 1.00019 3.30023 0.916852 4.30023C0.795945 6.0982 0.795945 7.90226 0.916852 9.70023C0.94096 10.2631 1.02476 10.8218 1.16685 11.3669C1.26733 11.7878 1.47062 12.1772 1.75852 12.5002C2.09791 12.8364 2.53051 13.0629 3.00019 13.1502C4.79678 13.372 6.60703 13.4639 8.41685 13.4252C11.3335 13.4669 13.8919 13.4252 16.9169 13.1919C17.3981 13.1099 17.8428 12.8832 18.1919 12.5419C18.4252 12.3085 18.5994 12.0228 18.7002 11.7086C18.9982 10.7941 19.1446 9.83699 19.1335 8.87523C19.1669 8.40856 19.1669 5.5919 19.1669 5.0919ZM8.11685 9.37523V4.2169L13.0502 6.80856C11.6669 7.57523 9.84185 8.4419 8.11685 9.37523Z" fill="#617283"/>
</svg>
